<?xml version="1.0" encoding="utf-8"?>
<svg xmlns="http://www.w3.org/2000/svg" xmlns:xlink="http://www.w3.org/1999/xlink" width="600" height="400" viewBox="0 0 2400 1600">
<defs>
  <clipPath id="clip190">
    <rect x="0" y="0" width="2400" height="1600"/>
  </clipPath>
</defs>
<path clip-path="url(#clip190)" d="M0 1600 L2400 1600 L2400 0 L0 0  Z" fill="#ffffff" fill-rule="evenodd" fill-opacity="1"/>
<defs>
  <clipPath id="clip191">
    <rect x="480" y="0" width="1681" height="1600"/>
  </clipPath>
</defs>
<path clip-path="url(#clip190)" d="M175.445 1423.18 L2352.76 1423.18 L2352.76 47.2441 L175.445 47.2441  Z" fill="#ffffff" fill-rule="evenodd" fill-opacity="1"/>
<defs>
  <clipPath id="clip192">
    <rect x="175" y="47" width="2178" height="1377"/>
  </clipPath>
</defs>
<polyline clip-path="url(#clip192)" style="stroke:#222255; stroke-linecap:round; stroke-linejoin:round; stroke-width:2; stroke-opacity:0.4; fill:none" points="374.005,1423.18 374.005,47.2441 "/>
<polyline clip-path="url(#clip192)" style="stroke:#222255; stroke-linecap:round; stroke-linejoin:round; stroke-width:2; stroke-opacity:0.4; fill:none" points="647.881,1423.18 647.881,47.2441 "/>
<polyline clip-path="url(#clip192)" style="stroke:#222255; stroke-linecap:round; stroke-linejoin:round; stroke-width:2; stroke-opacity:0.4; fill:none" points="921.756,1423.18 921.756,47.2441 "/>
<polyline clip-path="url(#clip192)" style="stroke:#222255; stroke-linecap:round; stroke-linejoin:round; stroke-width:2; stroke-opacity:0.4; fill:none" points="1195.63,1423.18 1195.63,47.2441 "/>
<polyline clip-path="url(#clip192)" style="stroke:#222255; stroke-linecap:round; stroke-linejoin:round; stroke-width:2; stroke-opacity:0.4; fill:none" points="1469.51,1423.18 1469.51,47.2441 "/>
<polyline clip-path="url(#clip192)" style="stroke:#222255; stroke-linecap:round; stroke-linejoin:round; stroke-width:2; stroke-opacity:0.4; fill:none" points="1743.38,1423.18 1743.38,47.2441 "/>
<polyline clip-path="url(#clip192)" style="stroke:#222255; stroke-linecap:round; stroke-linejoin:round; stroke-width:2; stroke-opacity:0.4; fill:none" points="2017.26,1423.18 2017.26,47.2441 "/>
<polyline clip-path="url(#clip192)" style="stroke:#222255; stroke-linecap:round; stroke-linejoin:round; stroke-width:2; stroke-opacity:0.4; fill:none" points="2291.13,1423.18 2291.13,47.2441 "/>
<polyline clip-path="url(#clip192)" style="stroke:#222255; stroke-linecap:round; stroke-linejoin:round; stroke-width:2; stroke-opacity:0.05; fill:none" points="209.68,1423.18 209.68,47.2441 "/>
<polyline clip-path="url(#clip192)" style="stroke:#222255; stroke-linecap:round; stroke-linejoin:round; stroke-width:2; stroke-opacity:0.05; fill:none" points="264.455,1423.18 264.455,47.2441 "/>
<polyline clip-path="url(#clip192)" style="stroke:#222255; stroke-linecap:round; stroke-linejoin:round; stroke-width:2; stroke-opacity:0.05; fill:none" points="319.23,1423.18 319.23,47.2441 "/>
<polyline clip-path="url(#clip192)" style="stroke:#222255; stroke-linecap:round; stroke-linejoin:round; stroke-width:2; stroke-opacity:0.05; fill:none" points="428.78,1423.18 428.78,47.2441 "/>
<polyline clip-path="url(#clip192)" style="stroke:#222255; stroke-linecap:round; stroke-linejoin:round; stroke-width:2; stroke-opacity:0.05; fill:none" points="483.555,1423.18 483.555,47.2441 "/>
<polyline clip-path="url(#clip192)" style="stroke:#222255; stroke-linecap:round; stroke-linejoin:round; stroke-width:2; stroke-opacity:0.05; fill:none" points="538.33,1423.18 538.33,47.2441 "/>
<polyline clip-path="url(#clip192)" style="stroke:#222255; stroke-linecap:round; stroke-linejoin:round; stroke-width:2; stroke-opacity:0.05; fill:none" points="593.105,1423.18 593.105,47.2441 "/>
<polyline clip-path="url(#clip192)" style="stroke:#222255; stroke-linecap:round; stroke-linejoin:round; stroke-width:2; stroke-opacity:0.05; fill:none" points="702.656,1423.18 702.656,47.2441 "/>
<polyline clip-path="url(#clip192)" style="stroke:#222255; stroke-linecap:round; stroke-linejoin:round; stroke-width:2; stroke-opacity:0.05; fill:none" points="757.431,1423.18 757.431,47.2441 "/>
<polyline clip-path="url(#clip192)" style="stroke:#222255; stroke-linecap:round; stroke-linejoin:round; stroke-width:2; stroke-opacity:0.05; fill:none" points="812.206,1423.18 812.206,47.2441 "/>
<polyline clip-path="url(#clip192)" style="stroke:#222255; stroke-linecap:round; stroke-linejoin:round; stroke-width:2; stroke-opacity:0.05; fill:none" points="866.981,1423.18 866.981,47.2441 "/>
<polyline clip-path="url(#clip192)" style="stroke:#222255; stroke-linecap:round; stroke-linejoin:round; stroke-width:2; stroke-opacity:0.05; fill:none" points="976.531,1423.18 976.531,47.2441 "/>
<polyline clip-path="url(#clip192)" style="stroke:#222255; stroke-linecap:round; stroke-linejoin:round; stroke-width:2; stroke-opacity:0.05; fill:none" points="1031.31,1423.18 1031.31,47.2441 "/>
<polyline clip-path="url(#clip192)" style="stroke:#222255; stroke-linecap:round; stroke-linejoin:round; stroke-width:2; stroke-opacity:0.05; fill:none" points="1086.08,1423.18 1086.08,47.2441 "/>
<polyline clip-path="url(#clip192)" style="stroke:#222255; stroke-linecap:round; stroke-linejoin:round; stroke-width:2; stroke-opacity:0.05; fill:none" points="1140.86,1423.18 1140.86,47.2441 "/>
<polyline clip-path="url(#clip192)" style="stroke:#222255; stroke-linecap:round; stroke-linejoin:round; stroke-width:2; stroke-opacity:0.05; fill:none" points="1250.41,1423.18 1250.41,47.2441 "/>
<polyline clip-path="url(#clip192)" style="stroke:#222255; stroke-linecap:round; stroke-linejoin:round; stroke-width:2; stroke-opacity:0.05; fill:none" points="1305.18,1423.18 1305.18,47.2441 "/>
<polyline clip-path="url(#clip192)" style="stroke:#222255; stroke-linecap:round; stroke-linejoin:round; stroke-width:2; stroke-opacity:0.05; fill:none" points="1359.96,1423.18 1359.96,47.2441 "/>
<polyline clip-path="url(#clip192)" style="stroke:#222255; stroke-linecap:round; stroke-linejoin:round; stroke-width:2; stroke-opacity:0.05; fill:none" points="1414.73,1423.18 1414.73,47.2441 "/>
<polyline clip-path="url(#clip192)" style="stroke:#222255; stroke-linecap:round; stroke-linejoin:round; stroke-width:2; stroke-opacity:0.05; fill:none" points="1524.28,1423.18 1524.28,47.2441 "/>
<polyline clip-path="url(#clip192)" style="stroke:#222255; stroke-linecap:round; stroke-linejoin:round; stroke-width:2; stroke-opacity:0.05; fill:none" points="1579.06,1423.18 1579.06,47.2441 "/>
<polyline clip-path="url(#clip192)" style="stroke:#222255; stroke-linecap:round; stroke-linejoin:round; stroke-width:2; stroke-opacity:0.05; fill:none" points="1633.83,1423.18 1633.83,47.2441 "/>
<polyline clip-path="url(#clip192)" style="stroke:#222255; stroke-linecap:round; stroke-linejoin:round; stroke-width:2; stroke-opacity:0.05; fill:none" points="1688.61,1423.18 1688.61,47.2441 "/>
<polyline clip-path="url(#clip192)" style="stroke:#222255; stroke-linecap:round; stroke-linejoin:round; stroke-width:2; stroke-opacity:0.05; fill:none" points="1798.16,1423.18 1798.16,47.2441 "/>
<polyline clip-path="url(#clip192)" style="stroke:#222255; stroke-linecap:round; stroke-linejoin:round; stroke-width:2; stroke-opacity:0.05; fill:none" points="1852.93,1423.18 1852.93,47.2441 "/>
<polyline clip-path="url(#clip192)" style="stroke:#222255; stroke-linecap:round; stroke-linejoin:round; stroke-width:2; stroke-opacity:0.05; fill:none" points="1907.71,1423.18 1907.71,47.2441 "/>
<polyline clip-path="url(#clip192)" style="stroke:#222255; stroke-linecap:round; stroke-linejoin:round; stroke-width:2; stroke-opacity:0.05; fill:none" points="1962.48,1423.18 1962.48,47.2441 "/>
<polyline clip-path="url(#clip192)" style="stroke:#222255; stroke-linecap:round; stroke-linejoin:round; stroke-width:2; stroke-opacity:0.05; fill:none" points="2072.03,1423.18 2072.03,47.2441 "/>
<polyline clip-path="url(#clip192)" style="stroke:#222255; stroke-linecap:round; stroke-linejoin:round; stroke-width:2; stroke-opacity:0.05; fill:none" points="2126.81,1423.18 2126.81,47.2441 "/>
<polyline clip-path="url(#clip192)" style="stroke:#222255; stroke-linecap:round; stroke-linejoin:round; stroke-width:2; stroke-opacity:0.05; fill:none" points="2181.58,1423.18 2181.58,47.2441 "/>
<polyline clip-path="url(#clip192)" style="stroke:#222255; stroke-linecap:round; stroke-linejoin:round; stroke-width:2; stroke-opacity:0.05; fill:none" points="2236.36,1423.18 2236.36,47.2441 "/>
<polyline clip-path="url(#clip192)" style="stroke:#222255; stroke-linecap:round; stroke-linejoin:round; stroke-width:2; stroke-opacity:0.05; fill:none" points="2345.91,1423.18 2345.91,47.2441 "/>
<polyline clip-path="url(#clip190)" style="stroke:#222255; stroke-linecap:round; stroke-linejoin:round; stroke-width:4; stroke-opacity:0; fill:none" points="374.005,1423.18 374.005,1404.28 "/>
<polyline clip-path="url(#clip190)" style="stroke:#222255; stroke-linecap:round; stroke-linejoin:round; stroke-width:4; stroke-opacity:0; fill:none" points="647.881,1423.18 647.881,1404.28 "/>
<polyline clip-path="url(#clip190)" style="stroke:#222255; stroke-linecap:round; stroke-linejoin:round; stroke-width:4; stroke-opacity:0; fill:none" points="921.756,1423.18 921.756,1404.28 "/>
<polyline clip-path="url(#clip190)" style="stroke:#222255; stroke-linecap:round; stroke-linejoin:round; stroke-width:4; stroke-opacity:0; fill:none" points="1195.63,1423.18 1195.63,1404.28 "/>
<polyline clip-path="url(#clip190)" style="stroke:#222255; stroke-linecap:round; stroke-linejoin:round; stroke-width:4; stroke-opacity:0; fill:none" points="1469.51,1423.18 1469.51,1404.28 "/>
<polyline clip-path="url(#clip190)" style="stroke:#222255; stroke-linecap:round; stroke-linejoin:round; stroke-width:4; stroke-opacity:0; fill:none" points="1743.38,1423.18 1743.38,1404.28 "/>
<polyline clip-path="url(#clip190)" style="stroke:#222255; stroke-linecap:round; stroke-linejoin:round; stroke-width:4; stroke-opacity:0; fill:none" points="2017.26,1423.18 2017.26,1404.28 "/>
<polyline clip-path="url(#clip190)" style="stroke:#222255; stroke-linecap:round; stroke-linejoin:round; stroke-width:4; stroke-opacity:0; fill:none" points="2291.13,1423.18 2291.13,1404.28 "/>
<polyline clip-path="url(#clip190)" style="stroke:#222255; stroke-linecap:round; stroke-linejoin:round; stroke-width:4; stroke-opacity:0; fill:none" points="209.68,1423.18 209.68,1413.73 "/>
<polyline clip-path="url(#clip190)" style="stroke:#222255; stroke-linecap:round; stroke-linejoin:round; stroke-width:4; stroke-opacity:0; fill:none" points="264.455,1423.18 264.455,1413.73 "/>
<polyline clip-path="url(#clip190)" style="stroke:#222255; stroke-linecap:round; stroke-linejoin:round; stroke-width:4; stroke-opacity:0; fill:none" points="319.23,1423.18 319.23,1413.73 "/>
<polyline clip-path="url(#clip190)" style="stroke:#222255; stroke-linecap:round; stroke-linejoin:round; stroke-width:4; stroke-opacity:0; fill:none" points="428.78,1423.18 428.78,1413.73 "/>
<polyline clip-path="url(#clip190)" style="stroke:#222255; stroke-linecap:round; stroke-linejoin:round; stroke-width:4; stroke-opacity:0; fill:none" points="483.555,1423.18 483.555,1413.73 "/>
<polyline clip-path="url(#clip190)" style="stroke:#222255; stroke-linecap:round; stroke-linejoin:round; stroke-width:4; stroke-opacity:0; fill:none" points="538.33,1423.18 538.33,1413.73 "/>
<polyline clip-path="url(#clip190)" style="stroke:#222255; stroke-linecap:round; stroke-linejoin:round; stroke-width:4; stroke-opacity:0; fill:none" points="593.105,1423.18 593.105,1413.73 "/>
<polyline clip-path="url(#clip190)" style="stroke:#222255; stroke-linecap:round; stroke-linejoin:round; stroke-width:4; stroke-opacity:0; fill:none" points="702.656,1423.18 702.656,1413.73 "/>
<polyline clip-path="url(#clip190)" style="stroke:#222255; stroke-linecap:round; stroke-linejoin:round; stroke-width:4; stroke-opacity:0; fill:none" points="757.431,1423.18 757.431,1413.73 "/>
<polyline clip-path="url(#clip190)" style="stroke:#222255; stroke-linecap:round; stroke-linejoin:round; stroke-width:4; stroke-opacity:0; fill:none" points="812.206,1423.18 812.206,1413.73 "/>
<polyline clip-path="url(#clip190)" style="stroke:#222255; stroke-linecap:round; stroke-linejoin:round; stroke-width:4; stroke-opacity:0; fill:none" points="866.981,1423.18 866.981,1413.73 "/>
<polyline clip-path="url(#clip190)" style="stroke:#222255; stroke-linecap:round; stroke-linejoin:round; stroke-width:4; stroke-opacity:0; fill:none" points="976.531,1423.18 976.531,1413.73 "/>
<polyline clip-path="url(#clip190)" style="stroke:#222255; stroke-linecap:round; stroke-linejoin:round; stroke-width:4; stroke-opacity:0; fill:none" points="1031.31,1423.18 1031.31,1413.73 "/>
<polyline clip-path="url(#clip190)" style="stroke:#222255; stroke-linecap:round; stroke-linejoin:round; stroke-width:4; stroke-opacity:0; fill:none" points="1086.08,1423.18 1086.08,1413.73 "/>
<polyline clip-path="url(#clip190)" style="stroke:#222255; stroke-linecap:round; stroke-linejoin:round; stroke-width:4; stroke-opacity:0; fill:none" points="1140.86,1423.18 1140.86,1413.73 "/>
<polyline clip-path="url(#clip190)" style="stroke:#222255; stroke-linecap:round; stroke-linejoin:round; stroke-width:4; stroke-opacity:0; fill:none" points="1250.41,1423.18 1250.41,1413.73 "/>
<polyline clip-path="url(#clip190)" style="stroke:#222255; stroke-linecap:round; stroke-linejoin:round; stroke-width:4; stroke-opacity:0; fill:none" points="1305.18,1423.18 1305.18,1413.73 "/>
<polyline clip-path="url(#clip190)" style="stroke:#222255; stroke-linecap:round; stroke-linejoin:round; stroke-width:4; stroke-opacity:0; fill:none" points="1359.96,1423.18 1359.96,1413.73 "/>
<polyline clip-path="url(#clip190)" style="stroke:#222255; stroke-linecap:round; stroke-linejoin:round; stroke-width:4; stroke-opacity:0; fill:none" points="1414.73,1423.18 1414.73,1413.73 "/>
<polyline clip-path="url(#clip190)" style="stroke:#222255; stroke-linecap:round; stroke-linejoin:round; stroke-width:4; stroke-opacity:0; fill:none" points="1524.28,1423.18 1524.28,1413.73 "/>
<polyline clip-path="url(#clip190)" style="stroke:#222255; stroke-linecap:round; stroke-linejoin:round; stroke-width:4; stroke-opacity:0; fill:none" points="1579.06,1423.18 1579.06,1413.73 "/>
<polyline clip-path="url(#clip190)" style="stroke:#222255; stroke-linecap:round; stroke-linejoin:round; stroke-width:4; stroke-opacity:0; fill:none" points="1633.83,1423.18 1633.83,1413.73 "/>
<polyline clip-path="url(#clip190)" style="stroke:#222255; stroke-linecap:round; stroke-linejoin:round; stroke-width:4; stroke-opacity:0; fill:none" points="1688.61,1423.18 1688.61,1413.73 "/>
<polyline clip-path="url(#clip190)" style="stroke:#222255; stroke-linecap:round; stroke-linejoin:round; stroke-width:4; stroke-opacity:0; fill:none" points="1798.16,1423.18 1798.16,1413.73 "/>
<polyline clip-path="url(#clip190)" style="stroke:#222255; stroke-linecap:round; stroke-linejoin:round; stroke-width:4; stroke-opacity:0; fill:none" points="1852.93,1423.18 1852.93,1413.73 "/>
<polyline clip-path="url(#clip190)" style="stroke:#222255; stroke-linecap:round; stroke-linejoin:round; stroke-width:4; stroke-opacity:0; fill:none" points="1907.71,1423.18 1907.71,1413.73 "/>
<polyline clip-path="url(#clip190)" style="stroke:#222255; stroke-linecap:round; stroke-linejoin:round; stroke-width:4; stroke-opacity:0; fill:none" points="1962.48,1423.18 1962.48,1413.73 "/>
<polyline clip-path="url(#clip190)" style="stroke:#222255; stroke-linecap:round; stroke-linejoin:round; stroke-width:4; stroke-opacity:0; fill:none" points="2072.03,1423.18 2072.03,1413.73 "/>
<polyline clip-path="url(#clip190)" style="stroke:#222255; stroke-linecap:round; stroke-linejoin:round; stroke-width:4; stroke-opacity:0; fill:none" points="2126.81,1423.18 2126.81,1413.73 "/>
<polyline clip-path="url(#clip190)" style="stroke:#222255; stroke-linecap:round; stroke-linejoin:round; stroke-width:4; stroke-opacity:0; fill:none" points="2181.58,1423.18 2181.58,1413.73 "/>
<polyline clip-path="url(#clip190)" style="stroke:#222255; stroke-linecap:round; stroke-linejoin:round; stroke-width:4; stroke-opacity:0; fill:none" points="2236.36,1423.18 2236.36,1413.73 "/>
<polyline clip-path="url(#clip190)" style="stroke:#222255; stroke-linecap:round; stroke-linejoin:round; stroke-width:4; stroke-opacity:0; fill:none" points="2345.91,1423.18 2345.91,1413.73 "/>
<path clip-path="url(#clip190)" d="M368.658 1481.64 L384.977 1481.64 L384.977 1485.58 L363.033 1485.58 L363.033 1481.64 Q365.695 1478.89 370.278 1474.26 Q374.885 1469.61 376.065 1468.27 Q378.311 1465.74 379.19 1464.01 Q380.093 1462.25 380.093 1460.56 Q380.093 1457.8 378.148 1456.07 Q376.227 1454.33 373.125 1454.33 Q370.926 1454.33 368.473 1455.09 Q366.042 1455.86 363.264 1457.41 L363.264 1452.69 Q366.088 1451.55 368.542 1450.97 Q370.996 1450.39 373.033 1450.39 Q378.403 1450.39 381.598 1453.08 Q384.792 1455.77 384.792 1460.26 Q384.792 1462.39 383.982 1464.31 Q383.195 1466.2 381.088 1468.8 Q380.51 1469.47 377.408 1472.69 Q374.306 1475.88 368.658 1481.64 Z" fill="#000000" fill-rule="evenodd" fill-opacity="1" /><path clip-path="url(#clip190)" d="M650.89 1455.09 L639.084 1473.54 L650.89 1473.54 L650.89 1455.09 M649.663 1451.02 L655.543 1451.02 L655.543 1473.54 L660.473 1473.54 L660.473 1477.43 L655.543 1477.43 L655.543 1485.58 L650.89 1485.58 L650.89 1477.43 L635.288 1477.43 L635.288 1472.92 L649.663 1451.02 Z" fill="#000000" fill-rule="evenodd" fill-opacity="1" /><path clip-path="url(#clip190)" d="M922.161 1466.44 Q919.013 1466.44 917.161 1468.59 Q915.333 1470.74 915.333 1474.49 Q915.333 1478.22 917.161 1480.39 Q919.013 1482.55 922.161 1482.55 Q925.309 1482.55 927.138 1480.39 Q928.99 1478.22 928.99 1474.49 Q928.99 1470.74 927.138 1468.59 Q925.309 1466.44 922.161 1466.44 M931.444 1451.78 L931.444 1456.04 Q929.684 1455.21 927.879 1454.77 Q926.096 1454.33 924.337 1454.33 Q919.708 1454.33 917.254 1457.45 Q914.823 1460.58 914.476 1466.9 Q915.842 1464.89 917.902 1463.82 Q919.962 1462.73 922.439 1462.73 Q927.647 1462.73 930.657 1465.9 Q933.689 1469.05 933.689 1474.49 Q933.689 1479.82 930.541 1483.03 Q927.393 1486.25 922.161 1486.25 Q916.166 1486.25 912.995 1481.67 Q909.823 1477.06 909.823 1468.33 Q909.823 1460.14 913.712 1455.28 Q917.601 1450.39 924.152 1450.39 Q925.911 1450.39 927.694 1450.74 Q929.499 1451.09 931.444 1451.78 Z" fill="#000000" fill-rule="evenodd" fill-opacity="1" /><path clip-path="url(#clip190)" d="M1195.63 1469.17 Q1192.3 1469.17 1190.38 1470.95 Q1188.48 1472.73 1188.48 1475.86 Q1188.48 1478.98 1190.38 1480.77 Q1192.3 1482.55 1195.63 1482.55 Q1198.96 1482.55 1200.89 1480.77 Q1202.81 1478.96 1202.81 1475.86 Q1202.81 1472.73 1200.89 1470.95 Q1198.99 1469.17 1195.63 1469.17 M1190.96 1467.18 Q1187.95 1466.44 1186.26 1464.38 Q1184.59 1462.32 1184.59 1459.35 Q1184.59 1455.21 1187.53 1452.8 Q1190.49 1450.39 1195.63 1450.39 Q1200.79 1450.39 1203.73 1452.8 Q1206.67 1455.21 1206.67 1459.35 Q1206.67 1462.32 1204.98 1464.38 Q1203.32 1466.44 1200.33 1467.18 Q1203.71 1467.96 1205.59 1470.26 Q1207.48 1472.55 1207.48 1475.86 Q1207.48 1480.88 1204.4 1483.57 Q1201.35 1486.25 1195.63 1486.25 Q1189.91 1486.25 1186.84 1483.57 Q1183.78 1480.88 1183.78 1475.86 Q1183.78 1472.55 1185.68 1470.26 Q1187.58 1467.96 1190.96 1467.18 M1189.24 1459.79 Q1189.24 1462.48 1190.91 1463.98 Q1192.6 1465.49 1195.63 1465.49 Q1198.64 1465.49 1200.33 1463.98 Q1202.04 1462.48 1202.04 1459.79 Q1202.04 1457.11 1200.33 1455.6 Q1198.64 1454.1 1195.63 1454.1 Q1192.6 1454.1 1190.91 1455.6 Q1189.24 1457.11 1189.24 1459.79 Z" fill="#000000" fill-rule="evenodd" fill-opacity="1" /><path clip-path="url(#clip190)" d="M1444.19 1481.64 L1451.83 1481.64 L1451.83 1455.28 L1443.52 1456.95 L1443.52 1452.69 L1451.79 1451.02 L1456.46 1451.02 L1456.46 1481.64 L1464.1 1481.64 L1464.1 1485.58 L1444.19 1485.58 L1444.19 1481.64 Z" fill="#000000" fill-rule="evenodd" fill-opacity="1" /><path clip-path="url(#clip190)" d="M1483.55 1454.1 Q1479.94 1454.1 1478.11 1457.66 Q1476.3 1461.2 1476.3 1468.33 Q1476.3 1475.44 1478.11 1479.01 Q1479.94 1482.55 1483.55 1482.55 Q1487.18 1482.55 1488.99 1479.01 Q1490.81 1475.44 1490.81 1468.33 Q1490.81 1461.2 1488.99 1457.66 Q1487.18 1454.1 1483.55 1454.1 M1483.55 1450.39 Q1489.36 1450.39 1492.41 1455 Q1495.49 1459.58 1495.49 1468.33 Q1495.49 1477.06 1492.41 1481.67 Q1489.36 1486.25 1483.55 1486.25 Q1477.74 1486.25 1474.66 1481.67 Q1471.6 1477.06 1471.6 1468.33 Q1471.6 1459.58 1474.66 1455 Q1477.74 1450.39 1483.55 1450.39 Z" fill="#000000" fill-rule="evenodd" fill-opacity="1" /><path clip-path="url(#clip190)" d="M1718.87 1481.64 L1726.51 1481.64 L1726.51 1455.28 L1718.2 1456.95 L1718.2 1452.69 L1726.46 1451.02 L1731.14 1451.02 L1731.14 1481.64 L1738.78 1481.64 L1738.78 1485.58 L1718.87 1485.58 L1718.87 1481.64 Z" fill="#000000" fill-rule="evenodd" fill-opacity="1" /><path clip-path="url(#clip190)" d="M1752.25 1481.64 L1768.57 1481.64 L1768.57 1485.58 L1746.62 1485.58 L1746.62 1481.64 Q1749.29 1478.89 1753.87 1474.26 Q1758.48 1469.61 1759.66 1468.27 Q1761.9 1465.74 1762.78 1464.01 Q1763.68 1462.25 1763.68 1460.56 Q1763.68 1457.8 1761.74 1456.07 Q1759.82 1454.33 1756.72 1454.33 Q1754.52 1454.33 1752.06 1455.09 Q1749.63 1455.86 1746.85 1457.41 L1746.85 1452.69 Q1749.68 1451.55 1752.13 1450.97 Q1754.59 1450.39 1756.62 1450.39 Q1761.99 1450.39 1765.19 1453.08 Q1768.38 1455.77 1768.38 1460.26 Q1768.38 1462.39 1767.57 1464.31 Q1766.79 1466.2 1764.68 1468.8 Q1764.1 1469.47 1761 1472.69 Q1757.9 1475.88 1752.25 1481.64 Z" fill="#000000" fill-rule="evenodd" fill-opacity="1" /><path clip-path="url(#clip190)" d="M1991.7 1481.64 L1999.34 1481.64 L1999.34 1455.28 L1991.03 1456.95 L1991.03 1452.69 L1999.3 1451.02 L2003.97 1451.02 L2003.97 1481.64 L2011.61 1481.64 L2011.61 1485.58 L1991.7 1485.58 L1991.7 1481.64 Z" fill="#000000" fill-rule="evenodd" fill-opacity="1" /><path clip-path="url(#clip190)" d="M2033.9 1455.09 L2022.1 1473.54 L2033.9 1473.54 L2033.9 1455.09 M2032.67 1451.02 L2038.55 1451.02 L2038.55 1473.54 L2043.49 1473.54 L2043.49 1477.43 L2038.55 1477.43 L2038.55 1485.58 L2033.9 1485.58 L2033.9 1477.43 L2018.3 1477.43 L2018.3 1472.92 L2032.67 1451.02 Z" fill="#000000" fill-rule="evenodd" fill-opacity="1" /><path clip-path="url(#clip190)" d="M2265.74 1481.64 L2273.38 1481.64 L2273.38 1455.28 L2265.07 1456.95 L2265.07 1452.69 L2273.33 1451.02 L2278.01 1451.02 L2278.01 1481.64 L2285.65 1481.64 L2285.65 1485.58 L2265.74 1485.58 L2265.74 1481.64 Z" fill="#000000" fill-rule="evenodd" fill-opacity="1" /><path clip-path="url(#clip190)" d="M2305.67 1466.44 Q2302.52 1466.44 2300.67 1468.59 Q2298.84 1470.74 2298.84 1474.49 Q2298.84 1478.22 2300.67 1480.39 Q2302.52 1482.55 2305.67 1482.55 Q2308.82 1482.55 2310.65 1480.39 Q2312.5 1478.22 2312.5 1474.49 Q2312.5 1470.74 2310.65 1468.59 Q2308.82 1466.44 2305.67 1466.44 M2314.95 1451.78 L2314.95 1456.04 Q2313.19 1455.21 2311.39 1454.77 Q2309.61 1454.33 2307.85 1454.33 Q2303.22 1454.33 2300.76 1457.45 Q2298.33 1460.58 2297.99 1466.9 Q2299.35 1464.89 2301.41 1463.82 Q2303.47 1462.73 2305.95 1462.73 Q2311.16 1462.73 2314.17 1465.9 Q2317.2 1469.05 2317.2 1474.49 Q2317.2 1479.82 2314.05 1483.03 Q2310.9 1486.25 2305.67 1486.25 Q2299.68 1486.25 2296.5 1481.67 Q2293.33 1477.06 2293.33 1468.33 Q2293.33 1460.14 2297.22 1455.28 Q2301.11 1450.39 2307.66 1450.39 Q2309.42 1450.39 2311.2 1450.74 Q2313.01 1451.09 2314.95 1451.78 Z" fill="#000000" fill-rule="evenodd" fill-opacity="1" /><path clip-path="url(#clip190)" d="M998.253 1520.52 L1006.91 1520.52 L1027.98 1560.28 L1027.98 1520.52 L1034.22 1520.52 L1034.22 1568.04 L1025.56 1568.04 L1004.49 1528.29 L1004.49 1568.04 L998.253 1568.04 L998.253 1520.52 Z" fill="#000000" fill-rule="evenodd" fill-opacity="1" /><path clip-path="url(#clip190)" d="M1046.15 1553.98 L1046.15 1532.4 L1052.01 1532.4 L1052.01 1553.75 Q1052.01 1558.81 1053.98 1561.36 Q1055.96 1563.87 1059.9 1563.87 Q1064.65 1563.87 1067.38 1560.85 Q1070.15 1557.83 1070.15 1552.61 L1070.15 1532.4 L1076.01 1532.4 L1076.01 1568.04 L1070.15 1568.04 L1070.15 1562.57 Q1068.02 1565.82 1065.19 1567.41 Q1062.39 1568.97 1058.66 1568.97 Q1052.52 1568.97 1049.34 1565.15 Q1046.15 1561.33 1046.15 1553.98 M1060.89 1531.54 L1060.89 1531.54 Z" fill="#000000" fill-rule="evenodd" fill-opacity="1" /><path clip-path="url(#clip190)" d="M1115.83 1539.24 Q1118.02 1535.29 1121.08 1533.41 Q1124.13 1531.54 1128.27 1531.54 Q1133.84 1531.54 1136.87 1535.45 Q1139.89 1539.33 1139.89 1546.53 L1139.89 1568.04 L1134 1568.04 L1134 1546.72 Q1134 1541.59 1132.19 1539.11 Q1130.37 1536.63 1126.65 1536.63 Q1122.1 1536.63 1119.46 1539.65 Q1116.81 1542.68 1116.81 1547.9 L1116.81 1568.04 L1110.93 1568.04 L1110.93 1546.72 Q1110.93 1541.56 1109.11 1539.11 Q1107.3 1536.63 1103.51 1536.63 Q1099.02 1536.63 1096.38 1539.68 Q1093.74 1542.71 1093.74 1547.9 L1093.74 1568.04 L1087.85 1568.04 L1087.85 1532.4 L1093.74 1532.4 L1093.74 1537.93 Q1095.74 1534.66 1098.54 1533.1 Q1101.35 1531.54 1105.2 1531.54 Q1109.08 1531.54 1111.79 1533.51 Q1114.52 1535.48 1115.83 1539.24 Z" fill="#000000" fill-rule="evenodd" fill-opacity="1" /><path clip-path="url(#clip190)" d="M1177.16 1550.25 Q1177.16 1543.79 1174.49 1540.13 Q1171.85 1536.44 1167.2 1536.44 Q1162.55 1536.44 1159.88 1540.13 Q1157.24 1543.79 1157.24 1550.25 Q1157.24 1556.71 1159.88 1560.4 Q1162.55 1564.07 1167.2 1564.07 Q1171.85 1564.07 1174.49 1560.4 Q1177.16 1556.71 1177.16 1550.25 M1157.24 1537.81 Q1159.08 1534.62 1161.88 1533.1 Q1164.72 1531.54 1168.63 1531.54 Q1175.12 1531.54 1179.17 1536.69 Q1183.24 1541.85 1183.24 1550.25 Q1183.24 1558.65 1179.17 1563.81 Q1175.12 1568.97 1168.63 1568.97 Q1164.72 1568.97 1161.88 1567.44 Q1159.08 1565.88 1157.24 1562.7 L1157.24 1568.04 L1151.35 1568.04 L1151.35 1518.52 L1157.24 1518.52 L1157.24 1537.81 Z" fill="#000000" fill-rule="evenodd" fill-opacity="1" /><path clip-path="url(#clip190)" d="M1223.44 1548.76 L1223.44 1551.62 L1196.51 1551.62 Q1196.89 1557.67 1200.14 1560.85 Q1203.42 1564 1209.24 1564 Q1212.62 1564 1215.77 1563.17 Q1218.95 1562.35 1222.07 1560.69 L1222.07 1566.23 Q1218.92 1567.57 1215.61 1568.27 Q1212.3 1568.97 1208.89 1568.97 Q1200.36 1568.97 1195.37 1564 Q1190.4 1559.04 1190.4 1550.57 Q1190.4 1541.82 1195.11 1536.69 Q1199.85 1531.54 1207.88 1531.54 Q1215.07 1531.54 1219.24 1536.18 Q1223.44 1540.8 1223.44 1548.76 M1217.58 1547.04 Q1217.52 1542.23 1214.88 1539.37 Q1212.27 1536.5 1207.94 1536.5 Q1203.04 1536.5 1200.08 1539.27 Q1197.15 1542.04 1196.7 1547.07 L1217.58 1547.04 Z" fill="#000000" fill-rule="evenodd" fill-opacity="1" /><path clip-path="url(#clip190)" d="M1253.71 1537.87 Q1252.72 1537.3 1251.54 1537.04 Q1250.4 1536.76 1249 1536.76 Q1244.03 1536.76 1241.36 1540 Q1238.72 1543.22 1238.72 1549.27 L1238.72 1568.04 L1232.83 1568.04 L1232.83 1532.4 L1238.72 1532.4 L1238.72 1537.93 Q1240.56 1534.69 1243.52 1533.13 Q1246.48 1531.54 1250.72 1531.54 Q1251.32 1531.54 1252.05 1531.63 Q1252.79 1531.7 1253.68 1531.85 L1253.71 1537.87 Z" fill="#000000" fill-rule="evenodd" fill-opacity="1" /><path clip-path="url(#clip190)" d="M1294.39 1536.5 Q1289.67 1536.5 1286.94 1540.19 Q1284.2 1543.85 1284.2 1550.25 Q1284.2 1556.65 1286.91 1560.34 Q1289.64 1564 1294.39 1564 Q1299.06 1564 1301.8 1560.31 Q1304.54 1556.62 1304.54 1550.25 Q1304.54 1543.92 1301.8 1540.23 Q1299.06 1536.5 1294.39 1536.5 M1294.39 1531.54 Q1302.02 1531.54 1306.38 1536.5 Q1310.75 1541.47 1310.75 1550.25 Q1310.75 1559 1306.38 1564 Q1302.02 1568.97 1294.39 1568.97 Q1286.71 1568.97 1282.35 1564 Q1278.03 1559 1278.03 1550.25 Q1278.03 1541.47 1282.35 1536.5 Q1286.71 1531.54 1294.39 1531.54 Z" fill="#000000" fill-rule="evenodd" fill-opacity="1" /><path clip-path="url(#clip190)" d="M1338.5 1518.52 L1338.5 1523.39 L1332.9 1523.39 Q1329.75 1523.39 1328.51 1524.66 Q1327.3 1525.93 1327.3 1529.24 L1327.3 1532.4 L1336.94 1532.4 L1336.94 1536.95 L1327.3 1536.95 L1327.3 1568.04 L1321.41 1568.04 L1321.41 1536.95 L1315.81 1536.95 L1315.81 1532.4 L1321.41 1532.4 L1321.41 1529.91 Q1321.41 1523.96 1324.18 1521.26 Q1326.95 1518.52 1332.96 1518.52 L1338.5 1518.52 Z" fill="#000000" fill-rule="evenodd" fill-opacity="1" /><path clip-path="url(#clip190)" d="M1389.78 1533.76 L1389.78 1539.24 Q1387.29 1537.87 1384.78 1537.2 Q1382.3 1536.5 1379.75 1536.5 Q1374.05 1536.5 1370.9 1540.13 Q1367.75 1543.73 1367.75 1550.25 Q1367.75 1556.78 1370.9 1560.4 Q1374.05 1564 1379.75 1564 Q1382.3 1564 1384.78 1563.33 Q1387.29 1562.63 1389.78 1561.26 L1389.78 1566.68 Q1387.32 1567.82 1384.68 1568.39 Q1382.07 1568.97 1379.11 1568.97 Q1371.06 1568.97 1366.32 1563.91 Q1361.58 1558.85 1361.58 1550.25 Q1361.58 1541.53 1366.35 1536.53 Q1371.16 1531.54 1379.49 1531.54 Q1382.2 1531.54 1384.78 1532.11 Q1387.36 1532.65 1389.78 1533.76 Z" fill="#000000" fill-rule="evenodd" fill-opacity="1" /><path clip-path="url(#clip190)" d="M1413.77 1536.5 Q1409.06 1536.5 1406.33 1540.19 Q1403.59 1543.85 1403.59 1550.25 Q1403.59 1556.65 1406.29 1560.34 Q1409.03 1564 1413.77 1564 Q1418.45 1564 1421.19 1560.31 Q1423.93 1556.62 1423.93 1550.25 Q1423.93 1543.92 1421.19 1540.23 Q1418.45 1536.5 1413.77 1536.5 M1413.77 1531.54 Q1421.41 1531.54 1425.77 1536.5 Q1430.13 1541.47 1430.13 1550.25 Q1430.13 1559 1425.77 1564 Q1421.41 1568.97 1413.77 1568.97 Q1406.1 1568.97 1401.74 1564 Q1397.41 1559 1397.41 1550.25 Q1397.41 1541.47 1401.74 1536.5 Q1406.1 1531.54 1413.77 1531.54 Z" fill="#000000" fill-rule="evenodd" fill-opacity="1" /><path clip-path="url(#clip190)" d="M1460.5 1537.87 Q1459.51 1537.3 1458.33 1537.04 Q1457.19 1536.76 1455.79 1536.76 Q1450.82 1536.76 1448.15 1540 Q1445.51 1543.22 1445.51 1549.27 L1445.51 1568.04 L1439.62 1568.04 L1439.62 1532.4 L1445.51 1532.4 L1445.51 1537.93 Q1447.35 1534.69 1450.31 1533.13 Q1453.27 1531.54 1457.51 1531.54 Q1458.11 1531.54 1458.84 1531.63 Q1459.58 1531.7 1460.47 1531.85 L1460.5 1537.87 Z" fill="#000000" fill-rule="evenodd" fill-opacity="1" /><path clip-path="url(#clip190)" d="M1495.7 1548.76 L1495.7 1551.62 L1468.77 1551.62 Q1469.16 1557.67 1472.4 1560.85 Q1475.68 1564 1481.51 1564 Q1484.88 1564 1488.03 1563.17 Q1491.21 1562.35 1494.33 1560.69 L1494.33 1566.23 Q1491.18 1567.57 1487.87 1568.27 Q1484.56 1568.97 1481.16 1568.97 Q1472.63 1568.97 1467.63 1564 Q1462.66 1559.04 1462.66 1550.57 Q1462.66 1541.82 1467.37 1536.69 Q1472.12 1531.54 1480.14 1531.54 Q1487.33 1531.54 1491.5 1536.18 Q1495.7 1540.8 1495.7 1548.76 M1489.84 1547.04 Q1489.78 1542.23 1487.14 1539.37 Q1484.53 1536.5 1480.2 1536.5 Q1475.3 1536.5 1472.34 1539.27 Q1469.41 1542.04 1468.96 1547.07 L1489.84 1547.04 Z" fill="#000000" fill-rule="evenodd" fill-opacity="1" /><path clip-path="url(#clip190)" d="M1528.04 1533.45 L1528.04 1538.98 Q1525.56 1537.71 1522.88 1537.07 Q1520.21 1536.44 1517.34 1536.44 Q1512.98 1536.44 1510.79 1537.77 Q1508.62 1539.11 1508.62 1541.79 Q1508.62 1543.82 1510.18 1545 Q1511.74 1546.15 1516.45 1547.2 L1518.46 1547.64 Q1524.7 1548.98 1527.31 1551.43 Q1529.95 1553.85 1529.95 1558.21 Q1529.95 1563.17 1526 1566.07 Q1522.09 1568.97 1515.21 1568.97 Q1512.35 1568.97 1509.23 1568.39 Q1506.14 1567.85 1502.7 1566.74 L1502.7 1560.69 Q1505.95 1562.38 1509.1 1563.24 Q1512.25 1564.07 1515.34 1564.07 Q1519.48 1564.07 1521.7 1562.66 Q1523.93 1561.23 1523.93 1558.65 Q1523.93 1556.27 1522.31 1554.99 Q1520.72 1553.72 1515.28 1552.54 L1513.24 1552.07 Q1507.8 1550.92 1505.38 1548.56 Q1502.96 1546.18 1502.96 1542.04 Q1502.96 1537.01 1506.52 1534.27 Q1510.09 1531.54 1516.64 1531.54 Q1519.89 1531.54 1522.76 1532.01 Q1525.62 1532.49 1528.04 1533.45 Z" fill="#000000" fill-rule="evenodd" fill-opacity="1" /><polyline clip-path="url(#clip192)" style="stroke:#222255; stroke-linecap:round; stroke-linejoin:round; stroke-width:2; stroke-opacity:0.4; fill:none" points="175.445,1423.18 2352.76,1423.18 "/>
<polyline clip-path="url(#clip192)" style="stroke:#222255; stroke-linecap:round; stroke-linejoin:round; stroke-width:2; stroke-opacity:0.4; fill:none" points="175.445,1214.7 2352.76,1214.7 "/>
<polyline clip-path="url(#clip192)" style="stroke:#222255; stroke-linecap:round; stroke-linejoin:round; stroke-width:2; stroke-opacity:0.4; fill:none" points="175.445,1006.23 2352.76,1006.23 "/>
<polyline clip-path="url(#clip192)" style="stroke:#222255; stroke-linecap:round; stroke-linejoin:round; stroke-width:2; stroke-opacity:0.4; fill:none" points="175.445,797.755 2352.76,797.755 "/>
<polyline clip-path="url(#clip192)" style="stroke:#222255; stroke-linecap:round; stroke-linejoin:round; stroke-width:2; stroke-opacity:0.4; fill:none" points="175.445,589.279 2352.76,589.279 "/>
<polyline clip-path="url(#clip192)" style="stroke:#222255; stroke-linecap:round; stroke-linejoin:round; stroke-width:2; stroke-opacity:0.4; fill:none" points="175.445,380.804 2352.76,380.804 "/>
<polyline clip-path="url(#clip192)" style="stroke:#222255; stroke-linecap:round; stroke-linejoin:round; stroke-width:2; stroke-opacity:0.4; fill:none" points="175.445,172.329 2352.76,172.329 "/>
<polyline clip-path="url(#clip192)" style="stroke:#222255; stroke-linecap:round; stroke-linejoin:round; stroke-width:2; stroke-opacity:0.05; fill:none" points="175.445,1381.48 2352.76,1381.48 "/>
<polyline clip-path="url(#clip192)" style="stroke:#222255; stroke-linecap:round; stroke-linejoin:round; stroke-width:2; stroke-opacity:0.05; fill:none" points="175.445,1339.79 2352.76,1339.79 "/>
<polyline clip-path="url(#clip192)" style="stroke:#222255; stroke-linecap:round; stroke-linejoin:round; stroke-width:2; stroke-opacity:0.05; fill:none" points="175.445,1298.09 2352.76,1298.09 "/>
<polyline clip-path="url(#clip192)" style="stroke:#222255; stroke-linecap:round; stroke-linejoin:round; stroke-width:2; stroke-opacity:0.05; fill:none" points="175.445,1256.4 2352.76,1256.4 "/>
<polyline clip-path="url(#clip192)" style="stroke:#222255; stroke-linecap:round; stroke-linejoin:round; stroke-width:2; stroke-opacity:0.05; fill:none" points="175.445,1173.01 2352.76,1173.01 "/>
<polyline clip-path="url(#clip192)" style="stroke:#222255; stroke-linecap:round; stroke-linejoin:round; stroke-width:2; stroke-opacity:0.05; fill:none" points="175.445,1131.31 2352.76,1131.31 "/>
<polyline clip-path="url(#clip192)" style="stroke:#222255; stroke-linecap:round; stroke-linejoin:round; stroke-width:2; stroke-opacity:0.05; fill:none" points="175.445,1089.62 2352.76,1089.62 "/>
<polyline clip-path="url(#clip192)" style="stroke:#222255; stroke-linecap:round; stroke-linejoin:round; stroke-width:2; stroke-opacity:0.05; fill:none" points="175.445,1047.92 2352.76,1047.92 "/>
<polyline clip-path="url(#clip192)" style="stroke:#222255; stroke-linecap:round; stroke-linejoin:round; stroke-width:2; stroke-opacity:0.05; fill:none" points="175.445,964.535 2352.76,964.535 "/>
<polyline clip-path="url(#clip192)" style="stroke:#222255; stroke-linecap:round; stroke-linejoin:round; stroke-width:2; stroke-opacity:0.05; fill:none" points="175.445,922.84 2352.76,922.84 "/>
<polyline clip-path="url(#clip192)" style="stroke:#222255; stroke-linecap:round; stroke-linejoin:round; stroke-width:2; stroke-opacity:0.05; fill:none" points="175.445,881.145 2352.76,881.145 "/>
<polyline clip-path="url(#clip192)" style="stroke:#222255; stroke-linecap:round; stroke-linejoin:round; stroke-width:2; stroke-opacity:0.05; fill:none" points="175.445,839.45 2352.76,839.45 "/>
<polyline clip-path="url(#clip192)" style="stroke:#222255; stroke-linecap:round; stroke-linejoin:round; stroke-width:2; stroke-opacity:0.05; fill:none" points="175.445,756.059 2352.76,756.059 "/>
<polyline clip-path="url(#clip192)" style="stroke:#222255; stroke-linecap:round; stroke-linejoin:round; stroke-width:2; stroke-opacity:0.05; fill:none" points="175.445,714.364 2352.76,714.364 "/>
<polyline clip-path="url(#clip192)" style="stroke:#222255; stroke-linecap:round; stroke-linejoin:round; stroke-width:2; stroke-opacity:0.05; fill:none" points="175.445,672.669 2352.76,672.669 "/>
<polyline clip-path="url(#clip192)" style="stroke:#222255; stroke-linecap:round; stroke-linejoin:round; stroke-width:2; stroke-opacity:0.05; fill:none" points="175.445,630.974 2352.76,630.974 "/>
<polyline clip-path="url(#clip192)" style="stroke:#222255; stroke-linecap:round; stroke-linejoin:round; stroke-width:2; stroke-opacity:0.05; fill:none" points="175.445,547.584 2352.76,547.584 "/>
<polyline clip-path="url(#clip192)" style="stroke:#222255; stroke-linecap:round; stroke-linejoin:round; stroke-width:2; stroke-opacity:0.05; fill:none" points="175.445,505.889 2352.76,505.889 "/>
<polyline clip-path="url(#clip192)" style="stroke:#222255; stroke-linecap:round; stroke-linejoin:round; stroke-width:2; stroke-opacity:0.05; fill:none" points="175.445,464.194 2352.76,464.194 "/>
<polyline clip-path="url(#clip192)" style="stroke:#222255; stroke-linecap:round; stroke-linejoin:round; stroke-width:2; stroke-opacity:0.05; fill:none" points="175.445,422.499 2352.76,422.499 "/>
<polyline clip-path="url(#clip192)" style="stroke:#222255; stroke-linecap:round; stroke-linejoin:round; stroke-width:2; stroke-opacity:0.05; fill:none" points="175.445,339.109 2352.76,339.109 "/>
<polyline clip-path="url(#clip192)" style="stroke:#222255; stroke-linecap:round; stroke-linejoin:round; stroke-width:2; stroke-opacity:0.05; fill:none" points="175.445,297.414 2352.76,297.414 "/>
<polyline clip-path="url(#clip192)" style="stroke:#222255; stroke-linecap:round; stroke-linejoin:round; stroke-width:2; stroke-opacity:0.05; fill:none" points="175.445,255.719 2352.76,255.719 "/>
<polyline clip-path="url(#clip192)" style="stroke:#222255; stroke-linecap:round; stroke-linejoin:round; stroke-width:2; stroke-opacity:0.05; fill:none" points="175.445,214.024 2352.76,214.024 "/>
<polyline clip-path="url(#clip192)" style="stroke:#222255; stroke-linecap:round; stroke-linejoin:round; stroke-width:2; stroke-opacity:0.05; fill:none" points="175.445,130.634 2352.76,130.634 "/>
<polyline clip-path="url(#clip192)" style="stroke:#222255; stroke-linecap:round; stroke-linejoin:round; stroke-width:2; stroke-opacity:0.05; fill:none" points="175.445,88.9391 2352.76,88.9391 "/>
<polyline clip-path="url(#clip192)" style="stroke:#222255; stroke-linecap:round; stroke-linejoin:round; stroke-width:2; stroke-opacity:0.05; fill:none" points="175.445,47.2441 2352.76,47.2441 "/>
<polyline clip-path="url(#clip190)" style="stroke:#222255; stroke-linecap:round; stroke-linejoin:round; stroke-width:4; stroke-opacity:0; fill:none" points="175.445,1423.18 194.343,1423.18 "/>
<polyline clip-path="url(#clip190)" style="stroke:#222255; stroke-linecap:round; stroke-linejoin:round; stroke-width:4; stroke-opacity:0; fill:none" points="175.445,1214.7 194.343,1214.7 "/>
<polyline clip-path="url(#clip190)" style="stroke:#222255; stroke-linecap:round; stroke-linejoin:round; stroke-width:4; stroke-opacity:0; fill:none" points="175.445,1006.23 194.343,1006.23 "/>
<polyline clip-path="url(#clip190)" style="stroke:#222255; stroke-linecap:round; stroke-linejoin:round; stroke-width:4; stroke-opacity:0; fill:none" points="175.445,797.755 194.343,797.755 "/>
<polyline clip-path="url(#clip190)" style="stroke:#222255; stroke-linecap:round; stroke-linejoin:round; stroke-width:4; stroke-opacity:0; fill:none" points="175.445,589.279 194.343,589.279 "/>
<polyline clip-path="url(#clip190)" style="stroke:#222255; stroke-linecap:round; stroke-linejoin:round; stroke-width:4; stroke-opacity:0; fill:none" points="175.445,380.804 194.343,380.804 "/>
<polyline clip-path="url(#clip190)" style="stroke:#222255; stroke-linecap:round; stroke-linejoin:round; stroke-width:4; stroke-opacity:0; fill:none" points="175.445,172.329 194.343,172.329 "/>
<polyline clip-path="url(#clip190)" style="stroke:#222255; stroke-linecap:round; stroke-linejoin:round; stroke-width:4; stroke-opacity:0; fill:none" points="175.445,1381.48 184.894,1381.48 "/>
<polyline clip-path="url(#clip190)" style="stroke:#222255; stroke-linecap:round; stroke-linejoin:round; stroke-width:4; stroke-opacity:0; fill:none" points="175.445,1339.79 184.894,1339.79 "/>
<polyline clip-path="url(#clip190)" style="stroke:#222255; stroke-linecap:round; stroke-linejoin:round; stroke-width:4; stroke-opacity:0; fill:none" points="175.445,1298.09 184.894,1298.09 "/>
<polyline clip-path="url(#clip190)" style="stroke:#222255; stroke-linecap:round; stroke-linejoin:round; stroke-width:4; stroke-opacity:0; fill:none" points="175.445,1256.4 184.894,1256.4 "/>
<polyline clip-path="url(#clip190)" style="stroke:#222255; stroke-linecap:round; stroke-linejoin:round; stroke-width:4; stroke-opacity:0; fill:none" points="175.445,1173.01 184.894,1173.01 "/>
<polyline clip-path="url(#clip190)" style="stroke:#222255; stroke-linecap:round; stroke-linejoin:round; stroke-width:4; stroke-opacity:0; fill:none" points="175.445,1131.31 184.894,1131.31 "/>
<polyline clip-path="url(#clip190)" style="stroke:#222255; stroke-linecap:round; stroke-linejoin:round; stroke-width:4; stroke-opacity:0; fill:none" points="175.445,1089.62 184.894,1089.62 "/>
<polyline clip-path="url(#clip190)" style="stroke:#222255; stroke-linecap:round; stroke-linejoin:round; stroke-width:4; stroke-opacity:0; fill:none" points="175.445,1047.92 184.894,1047.92 "/>
<polyline clip-path="url(#clip190)" style="stroke:#222255; stroke-linecap:round; stroke-linejoin:round; stroke-width:4; stroke-opacity:0; fill:none" points="175.445,964.535 184.894,964.535 "/>
<polyline clip-path="url(#clip190)" style="stroke:#222255; stroke-linecap:round; stroke-linejoin:round; stroke-width:4; stroke-opacity:0; fill:none" points="175.445,922.84 184.894,922.84 "/>
<polyline clip-path="url(#clip190)" style="stroke:#222255; stroke-linecap:round; stroke-linejoin:round; stroke-width:4; stroke-opacity:0; fill:none" points="175.445,881.145 184.894,881.145 "/>
<polyline clip-path="url(#clip190)" style="stroke:#222255; stroke-linecap:round; stroke-linejoin:round; stroke-width:4; stroke-opacity:0; fill:none" points="175.445,839.45 184.894,839.45 "/>
<polyline clip-path="url(#clip190)" style="stroke:#222255; stroke-linecap:round; stroke-linejoin:round; stroke-width:4; stroke-opacity:0; fill:none" points="175.445,756.059 184.894,756.059 "/>
<polyline clip-path="url(#clip190)" style="stroke:#222255; stroke-linecap:round; stroke-linejoin:round; stroke-width:4; stroke-opacity:0; fill:none" points="175.445,714.364 184.894,714.364 "/>
<polyline clip-path="url(#clip190)" style="stroke:#222255; stroke-linecap:round; stroke-linejoin:round; stroke-width:4; stroke-opacity:0; fill:none" points="175.445,672.669 184.894,672.669 "/>
<polyline clip-path="url(#clip190)" style="stroke:#222255; stroke-linecap:round; stroke-linejoin:round; stroke-width:4; stroke-opacity:0; fill:none" points="175.445,630.974 184.894,630.974 "/>
<polyline clip-path="url(#clip190)" style="stroke:#222255; stroke-linecap:round; stroke-linejoin:round; stroke-width:4; stroke-opacity:0; fill:none" points="175.445,547.584 184.894,547.584 "/>
<polyline clip-path="url(#clip190)" style="stroke:#222255; stroke-linecap:round; stroke-linejoin:round; stroke-width:4; stroke-opacity:0; fill:none" points="175.445,505.889 184.894,505.889 "/>
<polyline clip-path="url(#clip190)" style="stroke:#222255; stroke-linecap:round; stroke-linejoin:round; stroke-width:4; stroke-opacity:0; fill:none" points="175.445,464.194 184.894,464.194 "/>
<polyline clip-path="url(#clip190)" style="stroke:#222255; stroke-linecap:round; stroke-linejoin:round; stroke-width:4; stroke-opacity:0; fill:none" points="175.445,422.499 184.894,422.499 "/>
<polyline clip-path="url(#clip190)" style="stroke:#222255; stroke-linecap:round; stroke-linejoin:round; stroke-width:4; stroke-opacity:0; fill:none" points="175.445,339.109 184.894,339.109 "/>
<polyline clip-path="url(#clip190)" style="stroke:#222255; stroke-linecap:round; stroke-linejoin:round; stroke-width:4; stroke-opacity:0; fill:none" points="175.445,297.414 184.894,297.414 "/>
<polyline clip-path="url(#clip190)" style="stroke:#222255; stroke-linecap:round; stroke-linejoin:round; stroke-width:4; stroke-opacity:0; fill:none" points="175.445,255.719 184.894,255.719 "/>
<polyline clip-path="url(#clip190)" style="stroke:#222255; stroke-linecap:round; stroke-linejoin:round; stroke-width:4; stroke-opacity:0; fill:none" points="175.445,214.024 184.894,214.024 "/>
<polyline clip-path="url(#clip190)" style="stroke:#222255; stroke-linecap:round; stroke-linejoin:round; stroke-width:4; stroke-opacity:0; fill:none" points="175.445,130.634 184.894,130.634 "/>
<polyline clip-path="url(#clip190)" style="stroke:#222255; stroke-linecap:round; stroke-linejoin:round; stroke-width:4; stroke-opacity:0; fill:none" points="175.445,88.9391 184.894,88.9391 "/>
<polyline clip-path="url(#clip190)" style="stroke:#222255; stroke-linecap:round; stroke-linejoin:round; stroke-width:4; stroke-opacity:0; fill:none" points="175.445,47.2441 184.894,47.2441 "/>
<path clip-path="url(#clip190)" d="M127.501 1408.98 Q123.89 1408.98 122.061 1412.54 Q120.255 1416.08 120.255 1423.21 Q120.255 1430.32 122.061 1433.89 Q123.89 1437.43 127.501 1437.43 Q131.135 1437.43 132.941 1433.89 Q134.769 1430.32 134.769 1423.21 Q134.769 1416.08 132.941 1412.54 Q131.135 1408.98 127.501 1408.98 M127.501 1405.27 Q133.311 1405.27 136.367 1409.88 Q139.445 1414.46 139.445 1423.21 Q139.445 1431.94 136.367 1436.55 Q133.311 1441.13 127.501 1441.13 Q121.691 1441.13 118.612 1436.55 Q115.556 1431.94 115.556 1423.21 Q115.556 1414.46 118.612 1409.88 Q121.691 1405.27 127.501 1405.27 Z" fill="#000000" fill-rule="evenodd" fill-opacity="1" /><path clip-path="url(#clip190)" d="M119.538 1228.05 L127.177 1228.05 L127.177 1201.68 L118.867 1203.35 L118.867 1199.09 L127.13 1197.42 L131.806 1197.42 L131.806 1228.05 L139.445 1228.05 L139.445 1231.98 L119.538 1231.98 L119.538 1228.05 Z" fill="#000000" fill-rule="evenodd" fill-opacity="1" /><path clip-path="url(#clip190)" d="M123.126 1019.57 L139.445 1019.57 L139.445 1023.51 L117.501 1023.51 L117.501 1019.57 Q120.163 1016.82 124.746 1012.19 Q129.353 1007.54 130.533 1006.19 Q132.779 1003.67 133.658 1001.94 Q134.561 1000.18 134.561 998.487 Q134.561 995.732 132.617 993.996 Q130.695 992.26 127.593 992.26 Q125.394 992.26 122.941 993.024 Q120.51 993.788 117.732 995.338 L117.732 990.616 Q120.556 989.482 123.01 988.903 Q125.464 988.325 127.501 988.325 Q132.871 988.325 136.066 991.01 Q139.26 993.695 139.26 998.186 Q139.26 1000.32 138.45 1002.24 Q137.663 1004.13 135.556 1006.73 Q134.978 1007.4 131.876 1010.62 Q128.774 1013.81 123.126 1019.57 Z" fill="#000000" fill-rule="evenodd" fill-opacity="1" /><path clip-path="url(#clip190)" d="M132.316 796.4 Q135.672 797.118 137.547 799.386 Q139.445 801.655 139.445 804.988 Q139.445 810.104 135.927 812.905 Q132.408 815.706 125.927 815.706 Q123.751 815.706 121.436 815.266 Q119.144 814.849 116.691 813.993 L116.691 809.479 Q118.635 810.613 120.95 811.192 Q123.265 811.771 125.788 811.771 Q130.186 811.771 132.478 810.035 Q134.792 808.298 134.792 804.988 Q134.792 801.933 132.64 800.22 Q130.51 798.484 126.691 798.484 L122.663 798.484 L122.663 794.641 L126.876 794.641 Q130.325 794.641 132.154 793.275 Q133.982 791.886 133.982 789.294 Q133.982 786.632 132.084 785.22 Q130.209 783.785 126.691 783.785 Q124.769 783.785 122.57 784.201 Q120.371 784.618 117.732 785.498 L117.732 781.331 Q120.394 780.59 122.709 780.22 Q125.047 779.85 127.107 779.85 Q132.431 779.85 135.533 782.28 Q138.635 784.687 138.635 788.808 Q138.635 791.678 136.992 793.669 Q135.348 795.636 132.316 796.4 Z" fill="#000000" fill-rule="evenodd" fill-opacity="1" /><path clip-path="url(#clip190)" d="M129.862 576.073 L118.056 594.522 L129.862 594.522 L129.862 576.073 M128.635 571.999 L134.515 571.999 L134.515 594.522 L139.445 594.522 L139.445 598.411 L134.515 598.411 L134.515 606.559 L129.862 606.559 L129.862 598.411 L114.26 598.411 L114.26 593.897 L128.635 571.999 Z" fill="#000000" fill-rule="evenodd" fill-opacity="1" /><path clip-path="url(#clip190)" d="M118.543 363.524 L136.899 363.524 L136.899 367.459 L122.825 367.459 L122.825 375.932 Q123.843 375.584 124.862 375.422 Q125.88 375.237 126.899 375.237 Q132.686 375.237 136.066 378.408 Q139.445 381.58 139.445 386.996 Q139.445 392.575 135.973 395.677 Q132.501 398.756 126.181 398.756 Q124.005 398.756 121.737 398.385 Q119.492 398.015 117.084 397.274 L117.084 392.575 Q119.168 393.709 121.39 394.265 Q123.612 394.82 126.089 394.82 Q130.093 394.82 132.431 392.714 Q134.769 390.607 134.769 386.996 Q134.769 383.385 132.431 381.279 Q130.093 379.172 126.089 379.172 Q124.214 379.172 122.339 379.589 Q120.487 380.006 118.543 380.885 L118.543 363.524 Z" fill="#000000" fill-rule="evenodd" fill-opacity="1" /><path clip-path="url(#clip190)" d="M127.917 170.466 Q124.769 170.466 122.918 172.619 Q121.089 174.771 121.089 178.521 Q121.089 182.248 122.918 184.424 Q124.769 186.577 127.917 186.577 Q131.066 186.577 132.894 184.424 Q134.746 182.248 134.746 178.521 Q134.746 174.771 132.894 172.619 Q131.066 170.466 127.917 170.466 M137.2 155.813 L137.2 160.072 Q135.441 159.239 133.635 158.799 Q131.853 158.359 130.093 158.359 Q125.464 158.359 123.01 161.484 Q120.58 164.609 120.232 170.929 Q121.598 168.915 123.658 167.85 Q125.718 166.762 128.195 166.762 Q133.404 166.762 136.413 169.933 Q139.445 173.081 139.445 178.521 Q139.445 183.845 136.297 187.063 Q133.149 190.28 127.917 190.28 Q121.922 190.28 118.751 185.697 Q115.58 181.091 115.58 172.364 Q115.58 164.169 119.468 159.308 Q123.357 154.424 129.908 154.424 Q131.667 154.424 133.45 154.771 Q135.255 155.119 137.2 155.813 Z" fill="#000000" fill-rule="evenodd" fill-opacity="1" /><path clip-path="url(#clip190)" d="M41.7242 1011.82 Q42.4244 1009.75 44.7161 1007.81 Q47.0077 1005.83 51.0181 1003.86 L64.0042 997.336 L64.0042 1004.24 L51.8138 1010.32 Q47.0395 1012.68 45.48 1014.91 Q43.9204 1017.1 43.9204 1020.92 L43.9204 1027.92 L64.0042 1027.92 L64.0042 1034.35 L16.4842 1034.35 L16.4842 1019.84 Q16.4842 1011.69 19.8898 1007.68 Q23.2955 1003.67 30.1704 1003.67 Q34.6582 1003.67 37.6183 1005.77 Q40.5784 1007.84 41.7242 1011.82 M21.7677 1027.92 L38.6368 1027.92 L38.6368 1019.84 Q38.6368 1015.19 36.5043 1012.84 Q34.34 1010.45 30.1704 1010.45 Q26.0009 1010.45 23.9002 1012.84 Q21.7677 1015.19 21.7677 1019.84 L21.7677 1027.92 Z" fill="#000000" fill-rule="evenodd" fill-opacity="1" /><path clip-path="url(#clip190)" d="M49.9359 992.848 L28.3562 992.848 L28.3562 986.992 L49.7131 986.992 Q54.7739 986.992 57.3202 985.018 Q59.8346 983.045 59.8346 979.098 Q59.8346 974.356 56.8109 971.618 Q53.7872 968.849 48.5673 968.849 L28.3562 968.849 L28.3562 962.993 L64.0042 962.993 L64.0042 968.849 L58.5296 968.849 Q61.7762 970.982 63.3676 973.815 Q64.9272 976.615 64.9272 980.339 Q64.9272 986.482 61.1078 989.665 Q57.2883 992.848 49.9359 992.848 M27.4968 978.111 L27.4968 978.111 Z" fill="#000000" fill-rule="evenodd" fill-opacity="1" /><path clip-path="url(#clip190)" d="M42.4881 921.297 L64.0042 921.297 L64.0042 927.154 L42.679 927.154 Q37.6183 927.154 35.1038 929.127 Q32.5894 931.101 32.5894 935.047 Q32.5894 939.79 35.6131 942.527 Q38.6368 945.264 43.8567 945.264 L64.0042 945.264 L64.0042 951.153 L28.3562 951.153 L28.3562 945.264 L33.8944 945.264 Q30.6797 943.164 29.0883 940.331 Q27.4968 937.466 27.4968 933.742 Q27.4968 927.6 31.3163 924.449 Q35.1038 921.297 42.4881 921.297 Z" fill="#000000" fill-rule="evenodd" fill-opacity="1" /><path clip-path="url(#clip190)" d="M18.2347 903.824 L28.3562 903.824 L28.3562 891.761 L32.9077 891.761 L32.9077 903.824 L52.2594 903.824 Q56.6199 903.824 57.8613 902.646 Q59.1026 901.436 59.1026 897.776 L59.1026 891.761 L64.0042 891.761 L64.0042 897.776 Q64.0042 904.556 61.4897 907.134 Q58.9434 909.712 52.2594 909.712 L32.9077 909.712 L32.9077 914.009 L28.3562 914.009 L28.3562 909.712 L18.2347 909.712 L18.2347 903.824 Z" fill="#000000" fill-rule="evenodd" fill-opacity="1" /><path clip-path="url(#clip190)" d="M28.3562 884.058 L28.3562 878.202 L64.0042 878.202 L64.0042 884.058 L28.3562 884.058 M14.479 884.058 L14.479 878.202 L21.895 878.202 L21.895 884.058 L14.479 884.058 Z" fill="#000000" fill-rule="evenodd" fill-opacity="1" /><path clip-path="url(#clip190)" d="M35.1993 838.193 Q31.2526 835.997 29.3747 832.941 Q27.4968 829.886 27.4968 825.748 Q27.4968 820.178 31.4117 817.155 Q35.2948 814.131 42.4881 814.131 L64.0042 814.131 L64.0042 820.019 L42.679 820.019 Q37.5546 820.019 35.072 821.833 Q32.5894 823.648 32.5894 827.371 Q32.5894 831.923 35.6131 834.565 Q38.6368 837.207 43.8567 837.207 L64.0042 837.207 L64.0042 843.095 L42.679 843.095 Q37.5228 843.095 35.072 844.909 Q32.5894 846.723 32.5894 850.511 Q32.5894 854.999 35.6449 857.64 Q38.6686 860.282 43.8567 860.282 L64.0042 860.282 L64.0042 866.17 L28.3562 866.17 L28.3562 860.282 L33.8944 860.282 Q30.616 858.277 29.0564 855.476 Q27.4968 852.675 27.4968 848.824 Q27.4968 844.941 29.4702 842.235 Q31.4436 839.498 35.1993 838.193 Z" fill="#000000" fill-rule="evenodd" fill-opacity="1" /><path clip-path="url(#clip190)" d="M44.7161 771.958 L47.5806 771.958 L47.5806 798.885 Q53.6281 798.503 56.8109 795.256 Q59.9619 791.978 59.9619 786.154 Q59.9619 782.78 59.1344 779.629 Q58.3069 776.446 56.6518 773.327 L62.1899 773.327 Q63.5267 776.478 64.227 779.788 Q64.9272 783.098 64.9272 786.504 Q64.9272 795.034 59.9619 800.031 Q54.9967 804.996 46.5303 804.996 Q37.7774 804.996 32.6531 800.285 Q27.4968 795.543 27.4968 787.522 Q27.4968 780.329 32.1438 776.159 Q36.7589 771.958 44.7161 771.958 M42.9973 777.814 Q38.1912 777.878 35.3266 780.52 Q32.4621 783.13 32.4621 787.459 Q32.4621 792.36 35.2312 795.32 Q38.0002 798.248 43.0292 798.694 L42.9973 777.814 Z" fill="#000000" fill-rule="evenodd" fill-opacity="1" /><path clip-path="url(#clip190)" d="M14.5426 727.557 Q21.8632 731.822 29.0246 733.891 Q36.186 735.96 43.5384 735.96 Q50.8908 735.96 58.1159 733.891 Q65.3091 731.79 72.5979 727.557 L72.5979 732.65 Q65.1182 737.424 57.8931 739.811 Q50.668 742.167 43.5384 742.167 Q36.4406 742.167 29.2474 739.811 Q22.0542 737.456 14.5426 732.65 L14.5426 727.557 Z" fill="#000000" fill-rule="evenodd" fill-opacity="1" /><path clip-path="url(#clip190)" d="M29.4065 693.469 L34.9447 693.469 Q33.6716 695.951 33.035 698.625 Q32.3984 701.299 32.3984 704.163 Q32.3984 708.524 33.7352 710.72 Q35.072 712.884 37.7456 712.884 Q39.7826 712.884 40.9603 711.325 Q42.1061 709.765 43.1565 705.054 L43.6021 703.049 Q44.9389 696.811 47.3897 694.201 Q49.8086 691.559 54.1691 691.559 Q59.1344 691.559 62.0308 695.506 Q64.9272 699.421 64.9272 706.296 Q64.9272 709.16 64.3543 712.28 Q63.8132 715.367 62.6992 718.804 L56.6518 718.804 Q58.3387 715.558 59.198 712.407 Q60.0256 709.256 60.0256 706.168 Q60.0256 702.031 58.6251 699.803 Q57.1929 697.575 54.6147 697.575 Q52.2276 697.575 50.9545 699.198 Q49.6813 700.789 48.5037 706.232 L48.0262 708.269 Q46.8804 713.712 44.5251 716.131 Q42.138 718.55 38.0002 718.55 Q32.9713 718.55 30.2341 714.985 Q27.4968 711.42 27.4968 704.863 Q27.4968 701.617 27.9743 698.752 Q28.4517 695.888 29.4065 693.469 Z" fill="#000000" fill-rule="evenodd" fill-opacity="1" /><path clip-path="url(#clip190)" d="M44.7161 651.742 L47.5806 651.742 L47.5806 678.669 Q53.6281 678.287 56.8109 675.04 Q59.9619 671.762 59.9619 665.937 Q59.9619 662.563 59.1344 659.412 Q58.3069 656.229 56.6518 653.11 L62.1899 653.11 Q63.5267 656.261 64.227 659.571 Q64.9272 662.882 64.9272 666.287 Q64.9272 674.817 59.9619 679.814 Q54.9967 684.78 46.5303 684.78 Q37.7774 684.78 32.6531 680.069 Q27.4968 675.327 27.4968 667.306 Q27.4968 660.113 32.1438 655.943 Q36.7589 651.742 44.7161 651.742 M42.9973 657.598 Q38.1912 657.662 35.3266 660.304 Q32.4621 662.913 32.4621 667.242 Q32.4621 672.144 35.2312 675.104 Q38.0002 678.032 43.0292 678.478 L42.9973 657.598 Z" fill="#000000" fill-rule="evenodd" fill-opacity="1" /><path clip-path="url(#clip190)" d="M29.7248 616.476 L35.1993 616.476 Q33.8307 618.958 33.1623 621.473 Q32.4621 623.955 32.4621 626.502 Q32.4621 632.199 36.0905 635.35 Q39.6872 638.501 46.212 638.501 Q52.7369 638.501 56.3653 635.35 Q59.9619 632.199 59.9619 626.502 Q59.9619 623.955 59.2935 621.473 Q58.5933 618.958 57.2247 616.476 L62.6355 616.476 Q63.7814 618.926 64.3543 621.568 Q64.9272 624.178 64.9272 627.138 Q64.9272 635.191 59.8664 639.933 Q54.8057 644.676 46.212 644.676 Q37.491 644.676 32.4939 639.901 Q27.4968 635.095 27.4968 626.756 Q27.4968 624.051 28.0697 621.473 Q28.6108 618.895 29.7248 616.476 Z" fill="#000000" fill-rule="evenodd" fill-opacity="1" /><path clip-path="url(#clip190)" d="M32.4621 592.477 Q32.4621 597.188 36.1542 599.925 Q39.8145 602.662 46.212 602.662 Q52.6095 602.662 56.3017 599.957 Q59.9619 597.219 59.9619 592.477 Q59.9619 587.798 56.2698 585.061 Q52.5777 582.324 46.212 582.324 Q39.8781 582.324 36.186 585.061 Q32.4621 587.798 32.4621 592.477 M27.4968 592.477 Q27.4968 584.838 32.4621 580.478 Q37.4273 576.117 46.212 576.117 Q54.9649 576.117 59.9619 580.478 Q64.9272 584.838 64.9272 592.477 Q64.9272 600.148 59.9619 604.508 Q54.9649 608.837 46.212 608.837 Q37.4273 608.837 32.4621 604.508 Q27.4968 600.148 27.4968 592.477 Z" fill="#000000" fill-rule="evenodd" fill-opacity="1" /><path clip-path="url(#clip190)" d="M42.4881 536.777 L64.0042 536.777 L64.0042 542.633 L42.679 542.633 Q37.6183 542.633 35.1038 544.607 Q32.5894 546.58 32.5894 550.527 Q32.5894 555.269 35.6131 558.007 Q38.6368 560.744 43.8567 560.744 L64.0042 560.744 L64.0042 566.632 L28.3562 566.632 L28.3562 560.744 L33.8944 560.744 Q30.6797 558.643 29.0883 555.81 Q27.4968 552.946 27.4968 549.222 Q27.4968 543.079 31.3163 539.928 Q35.1038 536.777 42.4881 536.777 Z" fill="#000000" fill-rule="evenodd" fill-opacity="1" /><path clip-path="url(#clip190)" d="M33.7671 501.638 L14.479 501.638 L14.479 495.782 L64.0042 495.782 L64.0042 501.638 L58.657 501.638 Q61.8398 503.484 63.3994 506.317 Q64.9272 509.118 64.9272 513.065 Q64.9272 519.526 59.771 523.6 Q54.6147 527.642 46.212 527.642 Q37.8093 527.642 32.6531 523.6 Q27.4968 519.526 27.4968 513.065 Q27.4968 509.118 29.0564 506.317 Q30.5842 503.484 33.7671 501.638 M46.212 521.595 Q52.6732 521.595 56.3653 518.953 Q60.0256 516.279 60.0256 511.632 Q60.0256 506.985 56.3653 504.312 Q52.6732 501.638 46.212 501.638 Q39.7508 501.638 36.0905 504.312 Q32.3984 506.985 32.3984 511.632 Q32.3984 516.279 36.0905 518.953 Q39.7508 521.595 46.212 521.595 Z" fill="#000000" fill-rule="evenodd" fill-opacity="1" /><path clip-path="url(#clip190)" d="M29.4065 460.993 L34.9447 460.993 Q33.6716 463.476 33.035 466.149 Q32.3984 468.823 32.3984 471.688 Q32.3984 476.048 33.7352 478.244 Q35.072 480.409 37.7456 480.409 Q39.7826 480.409 40.9603 478.849 Q42.1061 477.289 43.1565 472.579 L43.6021 470.574 Q44.9389 464.335 47.3897 461.725 Q49.8086 459.084 54.1691 459.084 Q59.1344 459.084 62.0308 463.03 Q64.9272 466.945 64.9272 473.82 Q64.9272 476.685 64.3543 479.804 Q63.8132 482.891 62.6992 486.329 L56.6518 486.329 Q58.3387 483.082 59.198 479.931 Q60.0256 476.78 60.0256 473.693 Q60.0256 469.555 58.6251 467.327 Q57.1929 465.099 54.6147 465.099 Q52.2276 465.099 50.9545 466.722 Q49.6813 468.314 48.5037 473.756 L48.0262 475.794 Q46.8804 481.236 44.5251 483.655 Q42.138 486.074 38.0002 486.074 Q32.9713 486.074 30.2341 482.509 Q27.4968 478.945 27.4968 472.388 Q27.4968 469.141 27.9743 466.277 Q28.4517 463.412 29.4065 460.993 Z" fill="#000000" fill-rule="evenodd" fill-opacity="1" /><path clip-path="url(#clip190)" d="M14.5426 450.681 L14.5426 445.588 Q22.0542 440.814 29.2474 438.459 Q36.4406 436.071 43.5384 436.071 Q50.668 436.071 57.8931 438.459 Q65.1182 440.814 72.5979 445.588 L72.5979 450.681 Q65.3091 446.448 58.1159 444.379 Q50.8908 442.278 43.5384 442.278 Q36.186 442.278 29.0246 444.379 Q21.8632 446.448 14.5426 450.681 Z" fill="#000000" fill-rule="evenodd" fill-opacity="1" /><polyline clip-path="url(#clip192)" style="stroke:#4477aa; stroke-linecap:round; stroke-linejoin:round; stroke-width:4.8; stroke-opacity:1; fill:none" points="237.067,84.3527 374.005,722.495 510.943,913.875 647.881,1008.31 784.818,1091.08 921.756,1121.31 1058.69,1144.03 1195.63,1153 1332.57,1184.48 1469.51,1191.36 1606.45,1196.57 1743.38,1204.28 1880.32,1213.66 2017.26,1221.69 2154.2,1223.95 2291.13,1234.23 "/>
</svg>
